<svg width="38" height="38" viewBox="0 0 38 38" fill="none" xmlns="http://www.w3.org/2000/svg">
<circle cx="19" cy="19" r="19" fill="#111111"/>
<path d="M20.052 28.24C18.82 28.24 17.676 28.024 16.62 27.592C15.564 27.144 14.636 26.528 13.836 25.744C13.052 24.944 12.444 24.016 12.012 22.96C11.596 21.904 11.388 20.768 11.388 19.552C11.388 18.336 11.596 17.2 12.012 16.144C12.444 15.088 13.052 14.168 13.836 13.384C14.636 12.6 15.556 11.984 16.596 11.536C17.652 11.088 18.804 10.864 20.052 10.864C21.396 10.864 22.58 11.088 23.604 11.536C24.628 11.968 25.532 12.568 26.316 13.336L24.108 15.544C23.644 15.032 23.076 14.632 22.404 14.344C21.732 14.056 20.948 13.912 20.052 13.912C19.268 13.912 18.548 14.048 17.892 14.32C17.252 14.576 16.692 14.96 16.212 15.472C15.732 15.968 15.364 16.568 15.108 17.272C14.852 17.96 14.724 18.72 14.724 19.552C14.724 20.4 14.852 21.168 15.108 21.856C15.364 22.544 15.732 23.144 16.212 23.656C16.692 24.152 17.252 24.536 17.892 24.808C18.548 25.08 19.268 25.216 20.052 25.216C20.996 25.216 21.804 25.072 22.476 24.784C23.164 24.496 23.74 24.088 24.204 23.56L26.412 25.768C25.628 26.552 24.716 27.16 23.676 27.592C22.636 28.024 21.428 28.24 20.052 28.24Z" fill="white"/>
</svg>
