<svg width="230" height="43" viewBox="0 0 230 43" fill="none" xmlns="http://www.w3.org/2000/svg">
<path d="M42.9012 0H0V43H42.9012V0Z" fill="#231815"/>
<path d="M41.9232 0.984375H0.984375V42.0175H41.9232V0.984375Z" fill="white"/>
<path d="M23.9993 17.0621L31.4421 9.87398L40.7474 18.8001V2.16016H2.15625V16.6723L12.8851 6.15833L23.9993 17.0621Z" fill="black"/>
<path d="M22.8861 20.0717L20.7311 20.2183L22.8683 18.1549L12.8851 8.36328L2.15625 18.9094V34.8664C8.8997 33.9044 33.0905 30.2745 32.6552 29.0479C32.1343 27.5888 9.92371 24.3703 10.1414 23.1258C10.3019 22.2174 20.988 21.3877 24.7664 21.2447C28.3844 21.1052 28.7911 21.2804 25.323 21.6309C22.1618 21.9492 13.8164 22.3497 14.0875 23.0507C14.6084 24.3846 38.1427 26.6125 39.6841 28.6331C41.1969 30.6143 25.1875 35.3098 4.07582 40.8386H40.7474V20.7619L31.4421 11.8429L22.8861 20.0717Z" fill="black"/>
<path d="M39.6841 28.6337C38.1427 26.6095 14.6084 24.3816 14.0875 23.0512C13.8128 22.3503 22.1583 21.9498 25.323 21.6315C28.7911 21.281 28.3844 21.1058 24.7664 21.2453C20.988 21.3883 10.3019 22.218 10.1414 23.1263C9.92371 24.3708 32.1343 27.5894 32.6552 29.0485C33.0905 30.2715 8.8997 33.9049 2.15625 34.8669V40.8427H4.07582C25.1875 35.314 41.1969 30.6184 39.6841 28.6372V28.6337Z" fill="white"/>
<path d="M31.4421 9.87386L23.9993 17.062L12.8851 6.1582L2.15625 16.6722V18.9073L12.8851 8.36113L22.8683 18.1527L20.7311 20.2162L22.8861 20.0695L31.4421 11.8443L40.7474 20.7633V18.8L31.4421 9.87386Z" fill="white"/>
<path d="M230.004 26.6973H52.3594V27.9184H230.004V26.6973Z" fill="#231815"/>
<path d="M61.96 21.1126H63.9192L67.2072 11.8043H68.251L71.539 21.1126H73.6122L80.3272 3.46361H81.1608V2.80664H75.3791V3.46361H76.2305L74.0148 9.64058L72.7929 13.386H72.1054L68.4042 3.10656H67.1431L63.5131 13.386H62.8541L61.6002 9.67986L59.3488 3.46361H60.1289V2.80664H54.3438V3.46361H55.1738L61.96 21.1126Z" fill="#231815"/>
<path d="M145.814 21.5888H145.874C149.419 21.5888 153.676 20.0285 154.987 15.6475L155.012 15.5725H155.792V14.8799H149.935V15.5725H150.837L150.737 15.7368C149.804 17.2864 148.03 18.1754 145.871 18.1754C142.469 18.1433 139.904 15.4868 139.904 11.9913C139.904 8.27442 142.305 5.77864 145.878 5.77864C147.958 5.77864 149.572 6.52844 150.548 7.94593L150.666 8.11375H149.939V8.80642H155.795V8.11375H154.901L154.876 8.03876C153.501 3.85771 149.326 2.36523 145.878 2.36523C140.966 2.36523 135.661 5.37517 135.633 11.9877C135.661 18.5825 140.934 21.5888 145.817 21.5888H145.814Z" fill="#231815"/>
<path d="M88.0984 20.4511H87.1794V3.49117H88.0984V2.79492H82.5234V3.49117H83.4283V20.4511H82.5234V21.1437H88.0984V20.4511Z" fill="#231815"/>
<path d="M108.066 11.9497C108.066 7.55797 105.241 2.81992 99.039 2.79492H90.3398V3.49117H91.5083V20.4511H90.3398V21.1437H99.0354C105.237 21.1152 108.062 16.3378 108.062 11.9497H108.066ZM95.3199 6.13691H99.0425C102.708 6.13691 104.379 9.15042 104.379 11.9533C104.379 13.4493 103.916 14.8525 103.068 15.9058C102.088 17.1234 100.695 17.766 99.0425 17.766H95.3199V6.13691Z" fill="#231815"/>
<path d="M124.03 21.783H124.724V17.1235H124.03V17.8733H114.323V13.246H121.971V13.5744H122.573V9.71473H121.971V10.0147H114.323V6.0514H123.813V6.83334H124.504V2.17383H123.813V2.7951H110.543V21.1046H124.03V21.783Z" fill="#231815"/>
<path d="M163.549 20.4546H162.637V15.3667H166.944L169.944 20.4546H169.363V21.1473H175.276V20.4546H174.557L170.916 14.624L171.393 14.3027C173.655 12.7852 174.617 9.78954 173.73 7.01883C172.886 4.3838 170.585 2.80563 167.571 2.79492H158.829V20.4511H157.828V21.1437H163.549V20.4511V20.4546ZM162.637 6.05836C162.637 6.05836 165.968 6.04408 166.374 6.04408C166.78 6.04408 167.186 6.04408 167.578 6.05479C169.455 6.07264 170.303 7.62224 170.296 9.05402C170.289 10.5572 169.349 12.0818 167.571 12.0818H162.637V6.05836Z" fill="#231815"/>
<path d="M216.166 20.4511H215.283V13.7742L216.882 13.7635L221.895 20.4511H221.328V21.1437H227.43V20.4511H226.714L220.27 11.7426L226.693 3.49117H227.462V2.79492H221.741V3.49117H222.155L216.979 10.0859H215.283V3.49117H216.166V2.79492H210.445V3.49117H211.354V20.4511H210.445V21.1437H216.166V20.4511Z" fill="#231815"/>
<path d="M190.738 21.783H191.432V17.1235H190.738V17.8733H181.037V13.246H188.607V13.5744H189.213V9.71473H188.607V10.0147H181.037V6.0514H190.517V6.83334H191.211V2.17383H190.517V2.7951H177.258V21.1046H190.738V21.783Z" fill="#231815"/>
<path d="M207.808 21.783H208.502V17.1235H207.808V17.8733H198.104V13.246H205.684V13.5744H206.286V9.71473H205.684V10.0147H198.104V6.0514H207.587V6.83334H208.281V2.17383H207.587V2.7951H194.324V21.1046H207.808V21.783Z" fill="#231815"/>
<path d="M63.0762 33.0254L60.3047 39.0524H61.5479L61.9184 38.2526H64.6792L65.0497 39.0524H66.2787L63.5143 33.0254H63.0762ZM62.2711 37.26L63.2863 34.8963L64.3301 37.26H62.2711Z" fill="#231815"/>
<path d="M74.0523 35.6798C73.5892 35.6298 72.8126 35.5442 72.8696 34.8265C72.9052 34.3195 73.461 34.0553 73.9917 34.0553C74.4299 34.0553 74.893 34.2445 75.0034 34.6622H76.1612C76.1291 34.2623 75.9688 33.916 75.6874 33.6375C75.2777 33.234 74.6436 33.002 73.9383 33.002C73.233 33.002 72.6024 33.234 72.1963 33.6375C71.8757 33.9588 71.7154 34.3695 71.7261 34.855C71.7404 35.994 72.3531 36.501 73.8386 36.6082C74.3444 36.6367 75.1887 36.6831 75.1887 37.358C75.1887 37.6043 75.0426 37.815 74.7755 37.9507C74.5688 38.0578 74.2981 38.1113 74.006 38.1113C73.5001 38.1113 72.9622 37.9221 72.8304 37.5079H71.6406C71.6727 37.9043 71.833 38.247 72.1108 38.522C72.5383 38.9433 73.2187 39.1896 73.9775 39.1896C75.1637 39.1896 76.3607 38.5612 76.3607 37.3687C76.3607 35.9262 75.235 35.8084 74.0452 35.6798H74.0523Z" fill="#231815"/>
<path d="M84.7682 35.6798C84.3051 35.6298 83.5285 35.5442 83.5855 34.8265C83.6211 34.3195 84.1768 34.0553 84.7076 34.0553C85.1458 34.0553 85.6089 34.2445 85.7193 34.6622H86.8771C86.8414 34.2623 86.6847 33.9196 86.4033 33.6375C85.9936 33.234 85.3595 33.002 84.6577 33.002C83.956 33.002 83.3219 33.234 82.9158 33.6375C82.5952 33.9588 82.4349 34.3695 82.4456 34.8515C82.4598 35.9905 83.0761 36.4975 84.5616 36.6046C85.0674 36.6332 85.9117 36.6796 85.9117 37.3544C85.9117 37.6008 85.7656 37.8079 85.4984 37.9471C85.2954 38.0542 85.0211 38.1078 84.7326 38.1078C84.2267 38.1078 83.6852 37.9185 83.557 37.5044H82.3672C82.4028 37.9007 82.5595 38.2435 82.8374 38.5184C83.2649 38.9397 83.9453 39.1861 84.7041 39.1861C85.8903 39.1861 87.0872 38.5577 87.0872 37.3651C87.0872 35.9226 85.9651 35.8048 84.7717 35.6763L84.7682 35.6798Z" fill="#231815"/>
<path d="M94.8241 36.4991H96.9793V35.4529H94.8241V34.1604H97.1717V33.1035H93.6094V39.052H97.25V38.0022H94.8241V36.4991Z" fill="#231815"/>
<path d="M103.984 34.1604H105.545V39.052H106.749V34.1604H108.298V33.1035H103.984V34.1604Z" fill="#231815"/>
<path d="M135.029 33.0254L132.258 39.0524H133.501L133.875 38.2526H136.636L137.01 39.0524H138.239L135.471 33.0254H135.033H135.029ZM134.228 37.26L135.243 34.8963L136.283 37.26H134.228Z" fill="#231815"/>
<path d="M156.623 33.0254L153.852 39.0524H155.098L155.469 38.2526H158.23L158.6 39.0524H159.829L157.061 33.0254H156.623ZM155.822 37.26L156.837 34.8963L157.881 37.26H155.822Z" fill="#231815"/>
<path d="M124.433 35.9411L121.861 33.0918H121.555V39.0545H122.812V35.9232L124.444 37.6406H124.451L126.086 35.9232V39.0545H127.347V33.0918H127.055L124.433 35.9411Z" fill="#231815"/>
<path d="M147.309 36.4919L143.818 33.082H143.512V39.0555H144.787V35.6599L148.271 39.0626H148.567V33.107H147.309V36.4919Z" fill="#231815"/>
<path d="M167.951 35.8318V36.8423H169.418L169.283 37.1208C168.984 37.742 168.521 38.0098 167.74 38.0098C166.661 38.0098 165.963 37.2493 165.963 36.0746C165.963 34.8999 166.675 34.1144 167.74 34.1144C168.435 34.1144 168.898 34.3572 169.187 34.8749H170.409C170.027 33.5253 168.791 33.0325 167.74 33.0254C166.276 33.0254 164.698 33.9823 164.688 36.0782C164.698 38.1705 166.276 39.1274 167.74 39.1274C168.36 39.1274 169.856 38.9631 170.384 37.4314C170.562 36.9208 170.587 36.4209 170.562 35.8354H167.954L167.951 35.8318Z" fill="#231815"/>
<path d="M177.812 36.4991H179.968V35.4529H177.812V34.1604H180.16V33.1035H176.598V39.052H180.242V38.0022H177.812V36.4991Z" fill="#231815"/>
<path d="M189.199 35.9411L186.627 33.0918H186.32V39.0545H187.574V35.9232L189.206 37.6406H189.213L190.852 35.9232V39.0545H192.109V33.0918H191.82L189.199 35.9411Z" fill="#231815"/>
<path d="M199.399 36.4991H201.557V35.4529H199.399V34.1604H201.746V33.1035H198.188V39.052H201.828V38.0022H199.399V36.4991Z" fill="#231815"/>
<path d="M212.071 36.4919L208.58 33.082H208.273V39.0555H209.549V35.6599L213.033 39.0626H213.328V33.107H212.071V36.4919Z" fill="#231815"/>
<path d="M219.441 34.1604H220.998V39.052H222.202V34.1604H223.752V33.1035H219.441V34.1604Z" fill="#231815"/>
</svg>
